<svg width="131" height="25" viewBox="0 0 131 25" fill="none" xmlns="http://www.w3.org/2000/svg">
<g clip-path="url(#clip0_83_486)">
<path d="M19.5027 5.47642C20.075 4.89595 20.4307 4.09423 20.4307 3.20925C20.4307 1.43691 19.008 0 17.2532 0C16.1438 0 15.1686 0.575714 14.601 1.44642C14.4502 1.59868 1.80138 17.3452 1.68361 17.526C1.11123 18.1064 0.755554 18.9081 0.755554 19.7931C0.755554 21.5655 2.17825 23.0024 3.93307 23.0024C5.04249 23.0024 6.01765 22.4267 6.58532 21.556C6.73607 21.4037 19.3849 5.65722 19.5027 5.47642Z" fill="#0CA9E8"/>
<path d="M26.8211 12.9464C27.3958 12.366 27.7515 11.5643 27.7515 10.6769C27.7515 8.90456 26.3288 7.46765 24.574 7.46765C23.4646 7.46765 22.4894 8.04337 21.9194 8.91407C21.7663 9.06871 15.1239 17.338 15.0037 17.5212C14.429 18.1017 14.0733 18.9034 14.0733 19.7908C14.0733 21.5631 15.496 23 17.2509 23C18.3603 23 19.3354 22.4243 19.9055 21.5536C20.0586 21.399 26.701 13.1296 26.8211 12.9464Z" fill="#0CA9E8"/>
<path d="M33.7532 3.20925C33.7532 4.98159 32.3305 6.41849 30.5757 6.41849C28.8209 6.41849 27.3982 4.98159 27.3982 3.20925C27.3982 1.43691 28.8209 0 30.5757 0C32.3305 0 33.7532 1.43691 33.7532 3.20925Z" fill="#0CA9E8"/>
<path d="M7.10824 3.20925C7.10824 4.98159 5.68554 6.41849 3.93072 6.41849C2.1759 6.41849 0.753204 4.98159 0.753204 3.20925C0.753204 1.43691 2.1759 0 3.93072 0C5.68554 0 7.10824 1.43691 7.10824 3.20925Z" fill="#0CA9E8"/>
</g>
<path d="M49.1563 3.28264L52.7831 15.1606H52.9177L56.5444 3.28264H60.9314L55.4596 19.5H50.2412L44.7694 3.28264H49.1563ZM65.7811 19.7296C64.5036 19.7296 63.4055 19.4683 62.487 18.9457C61.5737 18.4178 60.8689 17.684 60.3727 16.7443C59.8817 15.7994 59.6363 14.7039 59.6363 13.4581C59.6363 12.2069 59.8817 11.1115 60.3727 10.1719C60.8689 9.22689 61.5737 8.4931 62.487 7.97047C63.4055 7.44256 64.5036 7.17861 65.7811 7.17861C67.0587 7.17861 68.1541 7.44256 69.0674 7.97047C69.9859 8.4931 70.6907 9.22689 71.1816 10.1719C71.6779 11.1115 71.926 12.2069 71.926 13.4581C71.926 14.7039 71.6779 15.7994 71.1816 16.7443C70.6907 17.684 69.9859 18.4178 69.0674 18.9457C68.1541 19.4683 67.0587 19.7296 65.7811 19.7296ZM65.8049 16.8077C66.2694 16.8077 66.6627 16.6651 66.9848 16.3801C67.3068 16.095 67.5523 15.6991 67.7212 15.1923C67.8954 14.6855 67.9825 14.0995 67.9825 13.4343C67.9825 12.7586 67.8954 12.1673 67.7212 11.6606C67.5523 11.1538 67.3068 10.7578 66.9848 10.4728C66.6627 10.1877 66.2694 10.0452 65.8049 10.0452C65.3245 10.0452 64.918 10.1877 64.5854 10.4728C64.2581 10.7578 64.0073 11.1538 63.8331 11.6606C63.6642 12.1673 63.5797 12.7586 63.5797 13.4343C63.5797 14.0995 63.6642 14.6855 63.8331 15.1923C64.0073 15.6991 64.2581 16.095 64.5854 16.3801C64.918 16.6651 65.3245 16.8077 65.8049 16.8077ZM74.7704 24.0611C74.3058 24.0611 73.8676 24.0242 73.4559 23.9503C73.0441 23.8816 72.6904 23.7893 72.3948 23.6731L73.25 20.862C73.6301 20.9887 73.9732 21.0626 74.2794 21.0837C74.5909 21.1048 74.8575 21.0547 75.0792 20.9333C75.3062 20.8171 75.4804 20.6086 75.6018 20.3077L75.7523 19.9434L71.4287 7.33698H75.483L77.724 16.0158H77.8507L80.1233 7.33698H84.2014L79.6166 20.664C79.3948 21.3292 79.0807 21.9152 78.6742 22.422C78.273 22.934 77.753 23.3353 77.1143 23.6256C76.4808 23.916 75.6995 24.0611 74.7704 24.0611ZM87.6734 19.7059C86.8973 19.7059 86.2084 19.5765 85.6066 19.3179C85.0101 19.0539 84.5376 18.658 84.1892 18.1301C83.846 17.5969 83.6745 16.9291 83.6745 16.1267C83.6745 15.4509 83.7932 14.8808 84.0308 14.4162C84.2684 13.9517 84.5957 13.5742 85.0127 13.2839C85.4298 12.9935 85.9102 12.7744 86.4539 12.6266C86.9976 12.4735 87.5783 12.3706 88.196 12.3178C88.8876 12.2545 89.4445 12.1885 89.8668 12.1198C90.2892 12.0459 90.5953 11.943 90.7854 11.811C90.9807 11.6738 91.0784 11.4811 91.0784 11.2329V11.1934C91.0784 10.7869 90.9385 10.4728 90.6587 10.251C90.3789 10.0293 90.0014 9.91845 89.5263 9.91845C89.0143 9.91845 88.6025 10.0293 88.291 10.251C87.9796 10.4728 87.7816 10.7789 87.6971 11.1696L84.1258 11.0429C84.2314 10.3038 84.5033 9.64394 84.9414 9.06324C85.3849 8.47726 85.992 8.01798 86.7627 7.6854C87.5388 7.34754 88.4705 7.17861 89.558 7.17861C90.334 7.17861 91.0493 7.27099 91.704 7.45576C92.3586 7.63525 92.9287 7.8992 93.4144 8.24762C93.9001 8.59076 94.2749 9.01309 94.5388 9.5146C94.8081 10.0161 94.9427 10.5889 94.9427 11.2329V19.5H91.3001V17.8054H91.2051C90.9886 18.2172 90.7115 18.5656 90.3736 18.8507C90.041 19.1357 89.6477 19.3495 89.1937 19.4921C88.745 19.6346 88.2382 19.7059 87.6734 19.7059ZM88.8691 17.1719C89.2861 17.1719 89.6609 17.0875 89.9935 16.9185C90.3314 16.7496 90.6006 16.5173 90.8012 16.2217C91.0018 15.9208 91.1021 15.5724 91.1021 15.1764V14.0203C90.9913 14.0784 90.8567 14.1312 90.6983 14.1787C90.5452 14.2262 90.3763 14.2711 90.1915 14.3133C90.0067 14.3555 89.8167 14.3925 89.6214 14.4242C89.426 14.4558 89.2386 14.4849 89.0591 14.5113C88.6949 14.5693 88.3834 14.6591 88.1247 14.7805C87.8713 14.9019 87.676 15.0603 87.5388 15.2556C87.4068 15.4457 87.3408 15.6727 87.3408 15.9366C87.3408 16.3378 87.4833 16.644 87.7684 16.8552C88.0587 17.0663 88.4256 17.1719 88.8691 17.1719ZM101.865 24.3145C100.709 24.3145 99.7192 24.1535 98.8957 23.8315C98.0721 23.5095 97.4254 23.0687 96.9556 22.5091C96.4858 21.9495 96.2033 21.316 96.1083 20.6086L99.7746 20.4027C99.8433 20.6508 99.97 20.8673 100.155 21.0521C100.345 21.2368 100.59 21.3794 100.891 21.4797C101.197 21.58 101.556 21.6301 101.968 21.6301C102.617 21.6301 103.153 21.4717 103.576 21.155C104.003 20.8435 104.217 20.2971 104.217 19.5158V17.3778H104.082C103.929 17.7526 103.697 18.0878 103.386 18.3835C103.074 18.6791 102.686 18.9114 102.221 19.0803C101.762 19.2492 101.234 19.3337 100.638 19.3337C99.7509 19.3337 98.9379 19.1278 98.1988 18.7161C97.465 18.299 96.8764 17.655 96.433 16.7839C95.9948 15.9076 95.7757 14.7805 95.7757 13.4027C95.7757 11.9826 96.0027 10.8133 96.4567 9.8947C96.9107 8.97086 97.5046 8.28722 98.2384 7.84377C98.9775 7.40033 99.772 7.17861 100.622 7.17861C101.261 7.17861 101.807 7.28947 102.261 7.51119C102.72 7.72763 103.098 8.00742 103.393 8.35056C103.689 8.69371 103.913 9.05004 104.067 9.41958H104.177V7.33698H108.034V19.5475C108.034 20.5769 107.775 21.4453 107.258 22.1527C106.74 22.8601 106.017 23.396 105.088 23.7602C104.159 24.1298 103.085 24.3145 101.865 24.3145ZM101.984 16.5147C102.454 16.5147 102.855 16.3906 103.188 16.1425C103.52 15.8944 103.776 15.538 103.956 15.0735C104.135 14.6089 104.225 14.052 104.225 13.4027C104.225 12.7428 104.135 12.1753 103.956 11.7001C103.781 11.2197 103.525 10.8502 103.188 10.5915C102.855 10.3329 102.454 10.2035 101.984 10.2035C101.504 10.2035 101.097 10.3355 100.764 10.5995C100.432 10.8634 100.178 11.2356 100.004 11.716C99.8353 12.1911 99.7509 12.7533 99.7509 13.4027C99.7509 14.052 99.838 14.6089 100.012 15.0735C100.186 15.538 100.437 15.8944 100.764 16.1425C101.097 16.3906 101.504 16.5147 101.984 16.5147ZM115.073 19.7296C113.801 19.7296 112.703 19.4789 111.779 18.9774C110.86 18.4706 110.153 17.75 109.657 16.8156C109.166 15.8759 108.92 14.7594 108.92 13.466C108.92 12.2096 109.168 11.1115 109.665 10.1719C110.161 9.22689 110.86 8.4931 111.763 7.97047C112.666 7.44256 113.729 7.17861 114.954 7.17861C115.82 7.17861 116.612 7.31322 117.33 7.58246C118.048 7.85169 118.668 8.25026 119.191 8.77817C119.713 9.30608 120.12 9.95805 120.41 10.7341C120.701 11.5048 120.846 12.3891 120.846 13.3868V14.3529H110.274V12.104H117.243C117.237 11.6922 117.14 11.3253 116.95 11.0033C116.76 10.6813 116.498 10.4305 116.166 10.251C115.838 10.0663 115.461 9.97388 115.033 9.97388C114.601 9.97388 114.213 10.0715 113.869 10.2669C113.526 10.4569 113.254 10.7182 113.054 11.0508C112.853 11.3781 112.748 11.7503 112.737 12.1673V14.4558C112.737 14.9521 112.835 15.3876 113.03 15.7624C113.225 16.1319 113.502 16.4197 113.861 16.6255C114.22 16.8314 114.648 16.9344 115.144 16.9344C115.487 16.9344 115.799 16.8869 116.079 16.7918C116.358 16.6968 116.599 16.5569 116.799 16.3721C117 16.1874 117.15 15.9604 117.251 15.6911L120.806 15.7941C120.658 16.5912 120.334 17.2854 119.832 17.8767C119.336 18.4627 118.684 18.9193 117.876 19.2466C117.069 19.5686 116.134 19.7296 115.073 19.7296ZM121.708 19.5V7.33698H125.47V9.5542H125.596C125.818 8.75178 126.18 8.15524 126.681 7.76459C127.183 7.36865 127.766 7.17069 128.431 7.17069C128.611 7.17069 128.796 7.18389 128.986 7.21028C129.176 7.2314 129.353 7.26571 129.516 7.31322V10.6786C129.331 10.6153 129.089 10.5651 128.788 10.5282C128.492 10.4912 128.228 10.4728 127.996 10.4728C127.537 10.4728 127.122 10.5757 126.753 10.7816C126.388 10.9822 126.101 11.2646 125.889 11.6289C125.684 11.9879 125.581 12.4102 125.581 12.8959V19.5H121.708Z" fill="#0CA9E8"/>
<defs>
<clipPath id="clip0_83_486">
<rect width="33" height="23" fill="white" transform="translate(0.753204)"/>
</clipPath>
</defs>
</svg>
