<svg width="34" height="23" viewBox="0 0 34 23" fill="none" xmlns="http://www.w3.org/2000/svg">
<g clip-path="url(#clip0_83_487)">
<path d="M19.5027 5.47642C20.075 4.89595 20.4307 4.09423 20.4307 3.20925C20.4307 1.43691 19.008 0 17.2532 0C16.1438 0 15.1686 0.575714 14.601 1.44642C14.4502 1.59868 1.80138 17.3452 1.68361 17.526C1.11123 18.1064 0.755554 18.9081 0.755554 19.7931C0.755554 21.5655 2.17825 23.0024 3.93307 23.0024C5.04249 23.0024 6.01765 22.4267 6.58532 21.556C6.73607 21.4037 19.3849 5.65722 19.5027 5.47642Z" fill="#0CA9E8"/>
<path d="M26.8211 12.9464C27.3958 12.366 27.7515 11.5643 27.7515 10.6769C27.7515 8.90456 26.3288 7.46765 24.574 7.46765C23.4646 7.46765 22.4894 8.04337 21.9194 8.91407C21.7663 9.06871 15.1239 17.338 15.0037 17.5212C14.429 18.1017 14.0733 18.9034 14.0733 19.7908C14.0733 21.5631 15.496 23 17.2509 23C18.3603 23 19.3354 22.4243 19.9055 21.5536C20.0586 21.399 26.701 13.1296 26.8211 12.9464Z" fill="#0CA9E8"/>
<path d="M33.7532 3.20925C33.7532 4.98159 32.3305 6.41849 30.5757 6.41849C28.8209 6.41849 27.3982 4.98159 27.3982 3.20925C27.3982 1.43691 28.8209 0 30.5757 0C32.3305 0 33.7532 1.43691 33.7532 3.20925Z" fill="#0CA9E8"/>
<path d="M7.10824 3.20925C7.10824 4.98159 5.68554 6.41849 3.93072 6.41849C2.1759 6.41849 0.753204 4.98159 0.753204 3.20925C0.753204 1.43691 2.1759 0 3.93072 0C5.68554 0 7.10824 1.43691 7.10824 3.20925Z" fill="#0CA9E8"/>
</g>
<defs>
<clipPath id="clip0_83_487">
<rect width="33" height="23" fill="white" transform="translate(0.753204)"/>
</clipPath>
</defs>
</svg>
